<svg xmlns="http://www.w3.org/2000/svg" viewBox="0 0 1810.54 451.28"><defs><style>.cls-1{font-size:393px;fill:#d41b2c;font-family:NoeStandard-Regular, Noe Standard;letter-spacing:-0.08em;}.cls-2{letter-spacing:-0.15em;}.cls-3{letter-spacing:-0.08em;}.cls-4{letter-spacing:-0.08em;}</style></defs><g id="Logo"><path d="M567.86,644l-84.45,29.94c-.53.18-1.82.63-3.57,1.08a46.74,46.74,0,0,1-5.24,1c-9.66,1.17-23.84-4-23.84-4-14.06-5.16-21.08-7.74-22.69-13.32-.7-2.43.27-6.39,2.21-14.3,1.27-5.16,2.57-9.38,3.53-12.28a38.67,38.67,0,0,1,6.31-26.29c1.42-2,10.47-14.65,26.35-15.38,13.47-.61,25.3,7.53,30.91,18.1,8.09,15.25,3.39,34-7,44.42a33.71,33.71,0,0,1-20.14,9.57c-16.68,1.67-27.89-11.1-28.86-12.24a33.3,33.3,0,0,1-2.72-3.68,28,28,0,0,0,3.82,7,31.86,31.86,0,0,0,6.08,5.93c6,4.36,22.07,9.07,36.75,1.18a38.77,38.77,0,0,0,16-17L539.16,631l9.72-5.17,8.27-4.4a25.91,25.91,0,0,0,2.16,11.9A27,27,0,0,0,567.86,644Z" transform="translate(-250.13 -334.55)"/><g id="Robot_Fingers" data-name="Robot Fingers"><path d="M586.91,566.29l-7.72,12.86c-1.56,0-3.8-.06-6.5.07-4.4.22-7.18.35-10.45,1.29a31.51,31.51,0,0,0-9.8,4.9l26.06-27.56a13.62,13.62,0,0,1,4.35,2.66A16.87,16.87,0,0,1,586.91,566.29Z" transform="translate(-250.13 -334.55)"/><path d="M605.69,537.09l-16.86,25a8.62,8.62,0,0,1-4.8-2,11.38,11.38,0,0,1-3.42-5.2q7.5-12.52,15-25a11.5,11.5,0,0,1,5.91,2.23A14.09,14.09,0,0,1,605.69,537.09Z" transform="translate(-250.13 -334.55)"/><path d="M619.42,500.56c0,.08-.08.29-.16.55-.28.89-.54,1.5-.61,1.67-.7,1.66-6,15.27-7.56,19.36-.92,2.41-2.24,6-3.73,10.54a20.86,20.86,0,0,1-6.83-5c-1.62-1.81-3.51-4-3.42-6.77a15.18,15.18,0,0,1,.4-2.83,18.18,18.18,0,0,1,1.14-3.41c.93-2.12,3.1-6.6,6.13-12.37h0a14.17,14.17,0,0,1,4.76-5.09c4.31-2.59,9.49-1.61,10,.36A7.66,7.66,0,0,1,619.42,500.56Z" transform="translate(-250.13 -334.55)"/><path d="M586,522.53c0,.07-.07.25-.14.47a14.64,14.64,0,0,1-.51,1.4c-.59,1.39-5.09,12.85-6.4,16.29-.78,2-1.9,5.07-3.16,8.88a10.83,10.83,0,0,1-6.33-4.05,9.49,9.49,0,0,1-2.29-5.94,13.67,13.67,0,0,1,.34-2.39,15.9,15.9,0,0,1,1-2.86c.79-1.79,2.62-5.56,5.18-10.41h0a11.88,11.88,0,0,1,4-4.28c3.64-2.17,8-1.33,8.4.34A6.51,6.51,0,0,1,586,522.53Z" transform="translate(-250.13 -334.55)"/><path d="M647.27,510.72c0,.08-.11.31-.22.58a16.2,16.2,0,0,1-.79,1.76c-.88,1.73-7.67,16-9.67,20.34-1.17,2.53-2.88,6.34-4.81,11.12a16.47,16.47,0,0,1-7.21-4.87c-.92-1.06-4.52-5.21-4.12-9.57a20.1,20.1,0,0,1,.6-3.07,19.46,19.46,0,0,1,1.48-3.61c1.18-2.21,3.91-6.86,7.69-12.81h0a14.23,14.23,0,0,1,5.76-5c5.11-2.28,11.07-.48,11.53,1.76A8.09,8.09,0,0,1,647.27,510.72Z" transform="translate(-250.13 -334.55)"/><path d="M654,558.92l-.32.57a14.72,14.72,0,0,1-1.11,1.67c-1.2,1.61-10.57,15.05-13.34,19.12-1.63,2.39-4,6-6.81,10.59a20.32,20.32,0,0,1-6.62-7.21c-.78-1.39-3.8-6.82-2.66-11.38a20.47,20.47,0,0,1,1.12-3.13,18.89,18.89,0,0,1,2.13-3.45c1.58-2.05,5.16-6.28,10-11.61h0a13,13,0,0,1,6.76-3.75c5.65-1,11.49,2.54,11.6,5.07A8.89,8.89,0,0,1,654,558.92Z" transform="translate(-250.13 -334.55)"/><path d="M608.37,509.55v0s0,0,0,0a0,0,0,0,1,0,0s0,0,0,0Z" transform="translate(-250.13 -334.55)"/><path d="M552.4,578.51c-1.44,2.39-3,4.84-4.57,7.32s-3.36,5.09-5,7.48a17.84,17.84,0,0,1-8.84-3.45,18.1,18.1,0,0,1-5.45-6.62L545,568.84a19.34,19.34,0,0,1,4.78,4.73A22.86,22.86,0,0,1,552.4,578.51Z" transform="translate(-250.13 -334.55)"/><path d="M524.93,586.61a27.26,27.26,0,0,0,5.4,5.86,29,29,0,0,0,9.87,5.2l-44.11-.46a39.62,39.62,0,0,0-3.72-2.67,40.19,40.19,0,0,0-4.24-2.37,169,169,0,0,1,22.79-4.42C515.85,587.14,520.54,586.78,524.93,586.61Z" transform="translate(-250.13 -334.55)"/><path d="M573.19,553.75q-9,10.5-17.93,21a8.4,8.4,0,0,1-3.69-1.83,12.08,12.08,0,0,1-3.74-7l17.23-19.33a7.5,7.5,0,0,1,3.35.82C571.64,549.09,572.87,552.68,573.19,553.75Z" transform="translate(-250.13 -334.55)"/><path d="M536.37,626.81,503,638.19a42.65,42.65,0,0,0,.84-24.48,40.82,40.82,0,0,0-5.14-11.47l42.43.2a40.59,40.59,0,0,1,.11,8.49A41,41,0,0,1,536.37,626.81Z" transform="translate(-250.13 -334.55)"/><path d="M563.45,611.26c-5.38,3.91-7.26,6.4-10.52,8.65a26.8,26.8,0,0,1-4.21,2.35,32.93,32.93,0,0,1-5.69,2.1,57.74,57.74,0,0,1,1.86-18.49c1.25-4.65,2.45-9.09,5.59-13.19,5.72-7.48,13.87-8.08,22.23-9.11,9.5-1.18,13,1.59,14.16,2.63s5.2,4.62,4.57,8.62C590.44,601.12,579.19,599.76,563.45,611.26Z" transform="translate(-250.13 -334.55)"/><path d="M629.21,595.3a176.65,176.65,0,0,1-14.67,15.86c-.93.89-1.86,1.75-2.78,2.59a21.08,21.08,0,0,1-9-11.73,25.46,25.46,0,0,1-1.07-5.6L619.58,583a15.3,15.3,0,0,1,7.57,6.8A19.88,19.88,0,0,1,629.21,595.3Z" transform="translate(-250.13 -334.55)"/><path d="M628.45,550.7l-2.08,2.92c-2.59,3.63-4.57,6.35-5,7-2.69,3.68-2.92,3.93-5.23,7.11-1.62,2.23-2.93,4.07-3.79,5.27a11,11,0,0,1-5-2.32,15.42,15.42,0,0,1-4.88-8.36l15.21-22a10.71,10.71,0,0,1,7.07,3.3A15,15,0,0,1,628.45,550.7Z" transform="translate(-250.13 -334.55)"/><path d="M605.12,621.52l-28.41,18.76a19.87,19.87,0,0,1-12.09-9.46,18.25,18.25,0,0,1-1.48-13l33.68-17.37a23.93,23.93,0,0,1,5.95,8.54A31.27,31.27,0,0,1,605.12,621.52Z" transform="translate(-250.13 -334.55)"/><path d="M609.26,577.55l-14.37,17.83a9.39,9.39,0,0,0,.64-3.64,9.57,9.57,0,0,0-2.11-5.33,16.17,16.17,0,0,0-4.72-4.51,15,15,0,0,0-6.44-2.2q4.37-3.54,9-7.09,3.88-3,7.68-5.84a21.46,21.46,0,0,1,5.33,3.84A25.75,25.75,0,0,1,609.26,577.55Z" transform="translate(-250.13 -334.55)"/></g><path d="M504.5,669.51c-.33,1.45-.81,3.44-1.44,5.79-1.06,3.87-2.18,7.33-2.9,9.36-2.17,6.08-5.14,14.4-12.26,20.93a31.53,31.53,0,0,1-7.74,5.32,35.66,35.66,0,0,1-6.82,2.33c.4-1.36.83-2.74,1.28-4.13.26-.82.78-2.45,1.41-4.25s1.6-4.38,2.86-7.35a26.72,26.72,0,0,0,4.27-4.7c2.19-3.1,3.21-5.83,4.6-9.71a74.55,74.55,0,0,0,2.53-8.74q3.82-1.47,8-2.86C500.38,670.78,502.47,670.12,504.5,669.51Z" transform="translate(-250.13 -334.55)"/><path d="M696.49,542.05a223.06,223.06,0,0,0-84.78-170.67c-1.12-.88-2.26-1.76-3.4-2.63q-3.42-2.61-6.94-5.08c-1.08-.75-2.15-1.5-3.24-2.23l-.6-.4c-1.1-.74-2.2-1.47-3.31-2.18s-2.42-1.55-3.65-2.31c-1-.64-2.06-1.27-3.1-1.88-.42-.26-.85-.51-1.27-.75-.89-.53-1.79-1.05-2.69-1.56q-1.87-1.07-3.78-2.1l-1.43-.77c-.62-.34-1.24-.67-1.87-1l-1.48-.76-2.42-1.22c-.74-.37-1.49-.74-2.25-1.1l-.62-.3-2-.95c-1.64-.77-3.29-1.51-4.95-2.24s-3.29-1.42-5-2.1l-.1,0c-2.51-1-5-2-7.58-2.93q-3.32-1.22-6.67-2.31c.18,4.31.41,10.35.56,17.55.11,5.35.21,10.21.27,14.72.2,16.15-.1,27.82-2.14,41.34a196.79,196.79,0,0,1-5.38,24.75c-2.53,4.72-4.17,7.56-4.89,8.87-7,12.74-5.08,21.09-11.34,33a52.82,52.82,0,0,1-10.86,14c-18.23,17.42-42,19.57-51.4,20.35-5.56.46-4.32-.1-12.08.41-13.76.89-20.94,2.84-39.77,6.64-11.65,2.36-24.86,4.92-41.41,5.24-9.15.18-17.42-.38-18.87-4.31a5.27,5.27,0,0,1,.48-4c3.82-8.48,16.35-11.78,39.1-19.8,11.94-4.22,15.68-5.85,18.18-7,13.92-6.43,20.33-11.93,23.15-14.57a69.16,69.16,0,0,0,8.25-9.21,99.24,99.24,0,0,1-12.51,10.73c-2.95,2.12-10.42,7.26-27.18,14.08-7.3,3-5.64,1.9-21.33,7.65-20.28,7.43-28.37,11.18-30.8,18.75-.56,1.77-.89,2.8-.48,4,1.75,5.21,14.16,6.12,27.71,5.43a360.8,360.8,0,0,1-24.75,40.5c-7.23,10.28-14.53,19.52-21.57,27.72a21.8,21.8,0,0,1-3.86,3.22c-4.39,2.84-12.21,5.54-15.57,2.21a6.13,6.13,0,0,1-1.52-4.26c0-4.29,3.84-7.53,5.36-8.87,4.23-3.75,8.18-10.74,16.07-24.7,1.57-2.78,3.9-7.83,8.57-17.92,3.92-8.47,7.07-15.5,9.2-20.31-7.65,6.85-14.31,12.23-19.26,16-13.16,10.19-18,12.37-22,13.69-6.75,2.21-18.49,4.32-20.48.61-1.87-3.52,6.05-10.31,19.1-23.22,9.24-9.12,48.37-48.35,61.73-64a40,40,0,0,1,9.13-8.09,43.06,43.06,0,0,1,17-6.12c8.81-1.49,4.56-2.19,35.24-13.12,19.19-6.84,22.16-7.11,28.63-11.69l.54-.38c1.47-1,11.08-8.81,14.74-14.58,3.13-4.92,2.14-13.22,0-29.62-1.67-13-2.58-19.66-6.25-25.41,0,0-.26-.4-.78-1.09a46.39,46.39,0,0,0-14-12.18c-25.27-14.28-68.84,3.68-73.11,5.5l-1.12.56c-1,.48-1.65.85-2.07,1.07-1.83,1-3.64,1.95-5.43,2.95-1.45.81-2.88,1.64-4.31,2.49-.94.55-1.88,1.12-2.8,1.68l-1.8,1.11q-2.3,1.43-4.53,2.91l-1.8,1.2q-3.39,2.27-6.69,4.67l-1.9,1.4-1.89,1.42-1.88,1.44q-1.86,1.46-3.7,2.94-2.75,2.24-5.43,4.54a224.07,224.07,0,0,0-57.64,77.18c-.14.3-.28.61-.41.91a232.48,232.48,0,0,0-15.38,49.06q-1.6,8.46-2.57,17.13c-.38,3.47-.68,7-.91,10.48-.06.95-.11,1.9-.16,2.85s-.09,1.82-.13,2.72q-.16,4.29-.16,8.63c0,1.32,0,2.64,0,4,0,.78,0,1.56.05,2.33,0,.22,0,.44,0,.66,0,.78,0,1.56.08,2.34.05,1.26.11,2.52.19,3.78,0,.6.07,1.21.11,1.81q.12,1.8.27,3.6c.05.67.11,1.34.17,2,.08.93.17,1.86.27,2.78s.17,1.58.26,2.36.15,1.32.23,2c.15,1.21.31,2.41.48,3.62q.1.82.24,1.65t.21,1.41c.27,1.75.56,3.5.87,5.23a1.55,1.55,0,0,0,0,.21c.31,1.77.65,3.52,1,5.27.61,3,1.27,5.87,2,8.78.39,1.57.79,3.13,1.21,4.68.72,2.67,1.5,5.33,2.31,8a223.57,223.57,0,0,0,78.15,111.35q4.95-16,10.48-29.95c26.87-68.29,62.85-102.76,92.72-121.74,41-26,73.65-25.71,104-58.83,34.11-37.23,37.37-89.82,34.92-128q3.64,2.43,7.18,5c1.57,1.15,3.12,2.33,4.65,3.52q5.75,4.5,11.14,9.42,3.24,2.94,6.33,6a194,194,0,0,1,25.7,31.67q2.4,3.66,4.6,7.43c.51.86,1,1.72,1.49,2.58s1,1.71,1.43,2.57c1.46,2.68,2.87,5.39,4.2,8.14q1.07,2.18,2.06,4.38,2,4.35,3.77,8.83c.37.92.72,1.84,1.07,2.77.15.39.3.79.44,1.19.54,1.43,1.06,2.88,1.56,4.33,1.34,3.89,2.56,7.85,3.66,11.85.49,1.78.95,3.58,1.39,5.38.3,1.23.58,2.47.85,3.71.17.75.34,1.5.49,2.25.3,1.4.58,2.81.83,4.22.11.58.22,1.16.32,1.74.17,1,.34,1.94.49,2.91.3,1.82.56,3.64.8,5.48.47,3.51.83,7.06,1.1,10.63.1,1.33.19,2.66.26,4,0,.43,0,.86.07,1.3,0,.63.06,1.27.08,1.91s.05,1.35.07,2c0,1.74.08,3.47.08,5.22v.33c0,1.38,0,2.76,0,4.14a192.21,192.21,0,0,1-10.8,59.84,5.44,5.44,0,0,1-.19.52A193.27,193.27,0,0,1,473.34,739.82c-3.18,0-6.35-.08-9.49-.23,1.28-7.22,3-15.06,5.33-23.36a241.4,241.4,0,0,1,9.61-27.63c-.57-2.13-1.13-4.26-1.7-6.38a100.58,100.58,0,0,1-57.23-20l-5.92,3.3a264.59,264.59,0,0,0-21.27,39q-3.35,7.59-6,14.78a260.86,260.86,0,0,0-8.84,28.93l.37.22.06,0a222.19,222.19,0,0,0,95,21.2c120.38,0,218.5-95.3,223-214.58q.17-4.29.16-8.63C696.54,545,696.53,543.54,696.49,542.05Zm-361,55.41a22.63,22.63,0,0,1-3.75-.3,21.5,21.5,0,0,1-4.53-1.35,3.44,3.44,0,0,1-1.19-2.06,3.54,3.54,0,0,1,.75-2.43,90.19,90.19,0,0,1,8.2-9.71c1.56-1.59,2.94-3.34,4.4-5a142.73,142.73,0,0,0,13.21-18.36c6.12-9.72,13.43-21.49,21.58-35,7.06-.46,14.28-1.29,20.32-2.13-1.32,1.52-3.21,3.76-5.35,6.54A154,154,0,0,0,378.39,544c-.7,1.21-1.22,2.14-1.64,2.94-1.87,3.51-3.26,6.07-3.53,6.59-1.94,3.72-6.48,11.47-9.92,16.8C349.7,591.43,338.77,597.39,335.45,597.46Zm85.14-78.14a64.38,64.38,0,0,0-12.67,12.91c-1.92,2.49-4,5.4-6.19,8.85-9.56,14.79-10.73,20.18-20.06,31.25-5.25,6.23-9.75,10.34-13.15,9.19a6.16,6.16,0,0,1-2.73-2.18,7.67,7.67,0,0,1-1.61-4.76,10.07,10.07,0,0,1,1.13-3.66,12.55,12.55,0,0,1,2.14-3.12,1.84,1.84,0,0,0,.16-.25c.1-.17.49-.85,1.06-1.75.34-.55.32-.53,3.19-5.45,10.83-18.62,16.51-27.16,16.51-27.16a127.24,127.24,0,0,1,10.47-12.68q6.5-1.41,13-2.89,8.85-2,17.55-4A68.91,68.91,0,0,0,420.59,519.32Z" transform="translate(-250.13 -334.55)"/></g><g id="Text"><text class="cls-1" transform="translate(464.5 353.02)">RI<tspan class="cls-2" x="334.05" y="0">V</tspan><tspan class="cls-3" x="523.08" y="0">e</tspan><tspan class="cls-4" x="682.64" y="0">R</tspan></text></g></svg>